<svg xmlns="http://www.w3.org/2000/svg" enable-background="new 0 0 64 64" viewBox="0 0 64 64" id="corner-flag">
  <path d="M51.31,12.34L25.9,3.06c-0.31-0.11-0.65-0.07-0.92,0.12C24.71,3.37,24.55,3.67,24.55,4v18.56v23.37
	c-7.1,0.28-12.52,3.48-12.52,7.52c0,4.23,5.94,7.55,13.52,7.55c7.58,0,13.52-3.32,13.52-7.55c0-4.05-5.43-7.25-12.52-7.52V23.26
	l24.76-9.04c0.39-0.14,0.66-0.52,0.66-0.94S51.71,12.48,51.31,12.34z M37.08,53.45c0,2.68-4.63,5.55-11.52,5.55
	s-11.52-2.87-11.52-5.55c0-2.55,4.19-5.26,10.52-5.53v5.53c0,0.55,0.45,1,1,1s1-0.45,1-1v-5.53C32.89,48.19,37.08,50.9,37.08,53.45z
	 M26.55,21.13V5.43l21.5,7.85L26.55,21.13z"></path>
</svg>
