<svg xmlns="http://www.w3.org/2000/svg" enable-background="new 0 0 32 32" viewBox="0 0 32 32" id="menu">
  <path d="M2 14.64001h11.14001c.82996 0 1.5-.67004 1.5-1.5V2c0-.83002-.67004-1.5-1.5-1.5H2C1.16998.5.5 1.16998.5 2v11.14001C.5 13.96997 1.16998 14.64001 2 14.64001zM30 .5H18.85999c-.82996 0-1.5.66998-1.5 1.5v11.14001c0 .82996.67004 1.5 1.5 1.5H30c.83002 0 1.5-.67004 1.5-1.5V2C31.5 1.16998 30.83002.5 30 .5zM2 31.5h11.14001c.82996 0 1.5-.67004 1.5-1.5V18.85999c0-.83002-.67004-1.5-1.5-1.5H2c-.83002 0-1.5.66998-1.5 1.5V30C.5 30.82996 1.16998 31.5 2 31.5zM30 22.92871h-4.07129v-4.07178c0-.82861-.67188-1.5-1.5-1.5s-1.5.67139-1.5 1.5v4.07178h-4.07129c-.82813 0-1.5.67139-1.5 1.5s.67188 1.5 1.5 1.5h4.07129V30c0 .82861.67188 1.5 1.5 1.5s1.5-.67139 1.5-1.5v-4.07129H30c.82813 0 1.5-.67139 1.5-1.5S30.82813 22.92871 30 22.92871z"></path>
</svg>
