<svg xmlns="http://www.w3.org/2000/svg" width="64" height="64" enable-background="new 0 0 64 64" viewBox="0 0 64 64" id="skills">
  <g>
    <path d="M50,26c6.617,0,12-5.383,12-12c0-1.394-0.239-2.759-0.709-4.061c-0.111-0.309-0.369-0.543-0.688-0.626
		c-0.317-0.085-0.655-0.007-0.905,0.209l-8.03,6.903l-3.835-0.353l-0.749-3.743l7.803-7.803c0.236-0.236,0.34-0.574,0.274-0.902
		c-0.065-0.327-0.29-0.601-0.599-0.729C53.127,2.302,51.592,2,50,2c-6.617,0-12,5.383-12,12c0,1.858,0.43,3.688,1.248,5.338
		l-3.115,3.115c-0.441-0.19-0.887-0.361-1.342-0.487V19c0-0.553-0.448-1-1-1h-3.58c-0.552,0-1,0.447-1,1v2.966
		c-0.816,0.224-1.597,0.547-2.333,0.966l-2.099-2.099c-0.391-0.391-1.023-0.391-1.414,0l-2.53,2.53
		c-0.391,0.391-0.391,1.022,0,1.414l2.099,2.099c-0.419,0.737-0.742,1.518-0.966,2.334H19c-0.552,0-1,0.447-1,1v3.58
		c0,0.553,0.448,1,1,1h2.966c0.125,0.455,0.297,0.901,0.488,1.343l-3.115,3.115C17.688,38.43,15.858,38,14,38
		C7.383,38,2,43.383,2,50c0,1.395,0.239,2.759,0.709,4.061c0.112,0.31,0.369,0.543,0.687,0.627c0.317,0.084,0.656,0.006,0.906-0.209
		l8.029-6.903l3.835,0.354l0.749,3.743l-7.802,7.803c-0.236,0.235-0.339,0.573-0.274,0.901c0.065,0.327,0.29,0.601,0.598,0.729
		C10.873,61.698,12.408,62,14,62c6.617,0,12-5.383,12-12c0-1.857-0.429-3.688-1.248-5.338l7.264-7.264
		c0.139,3.144,1.892,5.869,4.457,7.369C30.971,46.655,27,51.867,27,58c0,0.553,0.448,1,1,1h26c0.552,0,1-0.447,1-1
		c0-6.133-3.971-11.345-9.473-13.232c2.673-1.563,4.477-4.455,4.477-7.769c0-4.83-3.827-8.772-8.605-8.982l3.264-3.265
		C46.313,25.57,48.143,26,50,26z M31.85,26.736l-5.115,5.115C26.814,29.062,29.06,26.816,31.85,26.736z M43.773,22.813l-5.672,5.671
		c-2.636,0.899-4.721,2.985-5.62,5.62l-9.669,9.67c-0.321,0.32-0.385,0.817-0.158,1.209C23.535,46.498,24,48.232,24,50
		c0,5.514-4.486,10-10,10c-0.793,0-1.569-0.09-2.319-0.268l7.026-7.025c0.236-0.236,0.339-0.575,0.273-0.903l-1-5
		c-0.086-0.434-0.448-0.759-0.889-0.8l-5-0.46c-0.271-0.024-0.538,0.062-0.744,0.238l-7.159,6.155C4.063,51.303,4,50.655,4,50
		c0-5.514,4.486-10,10-10c1.767,0,3.502,0.465,5.018,1.346c0.393,0.229,0.889,0.162,1.209-0.158l6.511-6.511
		c0.005-0.006,0.01-0.011,0.016-0.016l14.434-14.435c0.321-0.32,0.386-0.817,0.158-1.209C40.465,17.502,40,15.767,40,14
		c0-5.514,4.486-10,10-10c0.793,0,1.568,0.09,2.318,0.267l-7.025,7.026c-0.236,0.235-0.339,0.573-0.273,0.901l1,5.003
		c0.086,0.433,0.447,0.758,0.888,0.799l5.003,0.46c0.268,0.026,0.535-0.062,0.74-0.238l7.16-6.155C59.938,12.697,60,13.345,60,14
		c0,5.514-4.486,10-10,10c-1.768,0-3.502-0.465-5.018-1.346C44.589,22.427,44.093,22.492,43.773,22.813z"></path>
  </g>
</svg>
