<svg xmlns="http://www.w3.org/2000/svg" width="168" height="168" fill="none" viewBox="0 0 168 168" id="x">
  <path fill="#000" d="M134.688 131H103.5L93.375 116.281L83.25 101.562L73.0938 116.281L62.9375 131H33.625L51.375 107.125L69.125 83.25L60.9531 71.75L52.7812 60.25L36.4375 37.25H67.625L76.2812 49.9062L84.9375 62.5625L93.2188 49.9062L101.5 37.25H132L115.562 59.8125L99.125 82.375L108.016 94.5312L116.907 106.688L134.688 131Z"></path>
  <path fill="#fff" fill-rule="evenodd" d="M69.125 83.25L33.625 131H62.9375L83.25 101.562L103.5 131H134.688L99.125 82.375L132 37.25H101.5L84.9375 62.5625L67.625 37.25H36.4375L69.125 83.25ZM53.677 59.7842L61.2553 70.4489L75.3662 50.3398L67.343 38.609L53.677 59.7842ZM66.3845 38.25L53.0533 58.9064L38.3749 38.25H66.3845ZM75.9692 51.2214L61.87 71.3139L69.6512 82.2641L98.449 61.8512L85.8582 62.9818L84.9559 64.3608L75.9692 51.2214ZM86.5561 61.9151L114.63 59.3942L129.874 38.4697L94.3007 50.0791L86.5561 61.9151ZM95.1759 48.7416L127.324 38.25H102.041L95.1759 48.7416ZM113.847 60.4685L100.429 61.6734L70.2305 83.0793L70.3612 83.2633L54.0835 105.158L97.928 82.4323L97.8869 82.3761L113.847 60.4685ZM98.5253 83.249L52.7211 106.99L35.898 129.619L71.9536 116.173L83.2513 99.7999L93.6707 114.947L107.108 94.9842L98.5253 83.249ZM107.736 95.8425L94.2799 115.832L103.723 129.56L116.048 107.208L107.736 95.8425ZM116.699 108.098L104.622 130H132.718L116.699 108.098ZM70.962 117.61L37.7375 130H62.4126L70.962 117.61Z" clip-rule="evenodd"></path>
</svg>
